<?xml version="1.0" encoding="UTF-8"?>
<!DOCTYPE svg PUBLIC "-//W3C//DTD SVG 1.1//EN" "http://www.w3.org/Graphics/SVG/1.1/DTD/svg11.dtd">
<svg xmlns="http://www.w3.org/2000/svg" version="1.1" width="2158px" height="500px" style="shape-rendering:geometricPrecision; text-rendering:geometricPrecision; image-rendering:optimizeQuality; fill-rule:evenodd; clip-rule:evenodd" xmlns:xlink="http://www.w3.org/1999/xlink">
<g><path style="opacity:0.992" fill="#624cf5" d="M 81.5,-0.5 C 200.833,-0.5 320.167,-0.5 439.5,-0.5C 455.023,6.16488 460.523,17.8316 456,34.5C 454.392,37.772 452.392,40.772 450,43.5C 429.529,64.9718 408.695,86.1385 387.5,107C 375.921,115.755 362.921,121.421 348.5,124C 304.833,126 261.167,126 217.5,124C 205.296,121.896 193.963,117.563 183.5,111C 146.5,88.6667 109.5,66.3333 72.5,44C 65.1498,36.6078 62.6498,27.7745 65,17.5C 67.5923,8.74455 73.0923,2.74455 81.5,-0.5 Z"/></g>
<g><path style="opacity:0.995" fill="#f9776b" d="M -0.5,393.5 C -0.5,297.5 -0.5,201.5 -0.5,105.5C 8.09026,80.1904 25.7569,69.6904 52.5,74C 55.9927,74.9419 59.326,76.2752 62.5,78C 100.5,101 138.5,124 176.5,147C 194.992,162.149 205.492,181.649 208,205.5C 208.667,234.833 208.667,264.167 208,293.5C 205.492,317.351 194.992,336.851 176.5,352C 138.5,375 100.5,398 62.5,421C 39.322,431.503 20.1554,426.67 5,406.5C 2.6512,402.259 0.817868,397.925 -0.5,393.5 Z"/></g>
<g><path style="opacity:0.979" fill="#000000" d="M 732.5,92.5 C 755.543,90.2008 777.377,94.2008 798,104.5C 798.667,127.833 798.667,151.167 798,174.5C 788.254,167.877 777.754,162.711 766.5,159C 757.718,156.758 749.051,157.091 740.5,160C 730.641,167.254 727.808,176.754 732,188.5C 736.292,197.462 742.126,205.295 749.5,212C 772.335,228.849 791.169,249.349 806,273.5C 815.888,296.369 818.221,320.035 813,344.5C 803.616,377.218 782.45,397.718 749.5,406C 724.235,410.761 700.402,406.928 678,394.5C 677.5,371.169 677.333,347.836 677.5,324.5C 686.405,328.952 695.405,333.452 704.5,338C 716.789,343.375 729.123,343.709 741.5,339C 752.861,327.761 754.361,315.261 746,301.5C 729.082,285.584 712.415,269.25 696,252.5C 668.535,220.851 660.869,184.851 673,144.5C 683.728,116.597 703.562,99.2635 732.5,92.5 Z"/></g>
<g><path style="opacity:0.983" fill="#000000" d="M 1140.5,92.5 C 1192.01,88.3382 1226.18,110.672 1243,159.5C 1252.31,188.427 1256.47,218.094 1255.5,248.5C 1256.62,282.194 1251.45,314.861 1240,346.5C 1218.37,397.147 1180.71,415.814 1127,402.5C 1105.4,394.899 1089.4,380.899 1079,360.5C 1066.85,335.574 1059.85,309.241 1058,281.5C 1054.29,244.757 1056.63,208.424 1065,172.5C 1070.98,147.367 1083.48,126.2 1102.5,109C 1113.94,100.439 1126.61,94.9388 1140.5,92.5 Z M 1148.5,161.5 C 1160.42,159.411 1169.59,163.411 1176,173.5C 1184.66,191.466 1188.99,210.466 1189,230.5C 1190.45,257.045 1188.78,283.378 1184,309.5C 1181.49,321.392 1174.99,330.225 1164.5,336C 1150.99,340.277 1140.49,336.443 1133,324.5C 1130.44,319.376 1128.44,314.043 1127,308.5C 1121.45,271.881 1121.12,235.214 1126,198.5C 1127.93,185.468 1133.43,174.301 1142.5,165C 1144.73,164.059 1146.73,162.892 1148.5,161.5 Z"/></g>
<g><path style="opacity:0.979" fill="#000000" d="M 1727.5,92.5 C 1750.54,90.2008 1772.38,94.2008 1793,104.5C 1793.67,127.833 1793.67,151.167 1793,174.5C 1783.25,167.877 1772.75,162.711 1761.5,159C 1752.72,156.758 1744.05,157.091 1735.5,160C 1725.64,167.254 1722.81,176.754 1727,188.5C 1731.29,197.462 1737.13,205.295 1744.5,212C 1767.34,228.849 1786.17,249.349 1801,273.5C 1810.89,296.369 1813.22,320.035 1808,344.5C 1798.62,377.218 1777.45,397.718 1744.5,406C 1719.24,410.761 1695.4,406.928 1673,394.5C 1672.5,371.169 1672.33,347.836 1672.5,324.5C 1681.4,328.952 1690.4,333.452 1699.5,338C 1711.79,343.375 1724.12,343.709 1736.5,339C 1747.86,327.761 1749.36,315.261 1741,301.5C 1724.08,285.584 1707.42,269.25 1691,252.5C 1663.54,220.851 1655.87,184.851 1668,144.5C 1678.73,116.597 1698.56,99.2635 1727.5,92.5 Z"/></g>
<g><path style="opacity:0.983" fill="#000000" d="M 858.5,100.5 C 889.168,100.333 919.835,100.5 950.5,101C 993.112,108.947 1017.28,134.447 1023,177.5C 1027.81,250.523 993.643,286.857 920.5,286.5C 920.5,324.5 920.5,362.5 920.5,400.5C 899.833,400.5 879.167,400.5 858.5,400.5C 858.5,300.5 858.5,200.5 858.5,100.5 Z M 920.5,158.5 C 946.2,156.316 959.534,167.983 960.5,193.5C 960.621,210.455 952.621,221.289 936.5,226C 931.233,227.191 925.899,227.691 920.5,227.5C 920.5,204.5 920.5,181.5 920.5,158.5 Z"/></g>
<g><path style="opacity:0.981" fill="#000000" d="M 1299.5,100.5 C 1329.17,100.333 1358.84,100.5 1388.5,101C 1438.79,110.021 1464.46,140.188 1465.5,191.5C 1465.44,218.549 1455.77,241.382 1436.5,260C 1433.66,261.586 1430.99,263.42 1428.5,265.5C 1444.91,310.401 1460.91,355.401 1476.5,400.5C 1454.59,400.827 1432.76,400.494 1411,399.5C 1394.67,354.5 1378.33,309.5 1362,264.5C 1361.5,309.832 1361.33,355.165 1361.5,400.5C 1340.83,400.5 1320.17,400.5 1299.5,400.5C 1299.5,300.5 1299.5,200.5 1299.5,100.5 Z M 1361.5,158.5 C 1387.89,157.18 1401.23,169.68 1401.5,196C 1401.35,212.477 1393.35,222.81 1377.5,227C 1372.23,228.191 1366.9,228.691 1361.5,228.5C 1361.5,205.167 1361.5,181.833 1361.5,158.5 Z"/></g>
<g><path style="opacity:0.982" fill="#000000" d="M 1489.5,100.5 C 1538.5,100.5 1587.5,100.5 1636.5,100.5C 1636.5,123.5 1636.5,146.5 1636.5,169.5C 1622.5,169.5 1608.5,169.5 1594.5,169.5C 1594.5,246.5 1594.5,323.5 1594.5,400.5C 1573.5,400.5 1552.5,400.5 1531.5,400.5C 1531.5,323.5 1531.5,246.5 1531.5,169.5C 1517.5,169.5 1503.5,169.5 1489.5,169.5C 1489.5,146.5 1489.5,123.5 1489.5,100.5 Z"/></g>
<g><path style="opacity:0.981" fill="#000000" d="M 1828.5,100.5 C 1851.83,100.5 1875.17,100.5 1898.5,100.5C 1909.6,133.051 1920.44,165.717 1931,198.5C 1940.64,165.574 1951.48,133.074 1963.5,101C 1987.17,100.167 2010.84,100.334 2034.5,101.5C 2010.39,155.382 1986.56,209.382 1963,263.5C 1962.5,309.165 1962.33,354.832 1962.5,400.5C 1941.5,400.5 1920.5,400.5 1899.5,400.5C 1899.67,354.832 1899.5,309.165 1899,263.5C 1875.2,209.266 1851.7,154.933 1828.5,100.5 Z"/></g>
<g><path style="opacity:0.985" fill="#f9776b" d="M 286.5,186.5 C 319.206,184.756 342.04,198.756 355,228.5C 363.64,260.35 354.473,285.517 327.5,304C 296.79,318.857 269.623,314.024 246,289.5C 230.359,267.061 228.359,243.394 240,218.5C 250.837,201.002 266.337,190.336 286.5,186.5 Z"/></g>
<g><path style="opacity:0.994" fill="#624cf5" d="M 439.5,499.5 C 320.167,499.5 200.833,499.5 81.5,499.5C 64.8034,490.916 60.3034,477.916 68,460.5C 70.5673,456.3 74.0673,453.133 78.5,451C 113.666,430.252 148.666,409.252 183.5,388C 193.963,381.437 205.296,377.104 217.5,375C 261.167,374.333 304.833,374.333 348.5,375C 362.921,377.579 375.921,383.245 387.5,392C 408.695,412.862 429.529,434.028 450,455.5C 459.822,467.838 459.989,480.338 450.5,493C 447.067,495.711 443.4,497.877 439.5,499.5 Z"/></g>
</svg>
